<svg xmlns="http://www.w3.org/2000/svg" viewBox="0 0 512 512">
  <rect width="512" height="512" rx="112" fill="#ede9df"/>
  <ellipse cx="256" cy="490" rx="88" ry="14" fill="rgba(0,0,0,.1)"/>
  <path d="M256,58 C352,58 428,162 428,296 C428,392 352,454 256,454 C160,454 84,392 84,296 C84,162 160,58 256,58 Z"
    fill="#f7f2e8" stroke="#080810" stroke-width="14" stroke-linejoin="round"/>
  <path d="M256,58 C352,58 428,162 428,296 C428,392 352,454 256,454 C160,454 84,392 84,296 C84,162 160,58 256,58 Z"
    fill="url(#g)"/>
  <defs>
    <radialGradient id="g" cx="38%" cy="32%" r="62%">
      <stop offset="0%" stop-color="#ffffff" stop-opacity=".45"/>
      <stop offset="100%" stop-color="#ffffff" stop-opacity="0"/>
    </radialGradient>
  </defs>
  <!-- highlight -->
  <path d="M178,112 C192,88 216,72 236,68" stroke="white" stroke-width="9" stroke-linecap="round" fill="none" opacity=".7"/>
  <!-- rune -->
  <path d="M272,172 L240,242 L262,242 L228,322" stroke="#0047ff" stroke-width="12" stroke-linecap="round" stroke-linejoin="round" fill="none" opacity=".7"/>
  <path d="M272,172 L240,242 L262,242 L228,322" stroke="#00e5ff" stroke-width="5" stroke-linecap="round" stroke-linejoin="round" fill="none" opacity=".5"/>
</svg>
