<svg width="320" height="380" viewBox="0 0 320 380" xmlns="http://www.w3.org/2000/svg">
  <rect width="320" height="380" fill="#f7f2e8"/>
  <defs>
    <radialGradient id="kyubi-aura" cx="50%" cy="48%" r="54%">
      <stop offset="0%" stop-color="#00e5ff" stop-opacity=".28"/>
      <stop offset="65%" stop-color="#0047ff" stop-opacity=".12"/>
      <stop offset="100%" stop-color="#0047ff" stop-opacity="0"/>
    </radialGradient>
    <radialGradient id="kyubi-fur" cx="32%" cy="26%" r="72%">
      <stop offset="0%" stop-color="#fefcf5"/>
      <stop offset="100%" stop-color="#ccc8be"/>
    </radialGradient>
    <radialGradient id="kyubi-tail-warm" cx="35%" cy="28%" r="72%">
      <stop offset="0%" stop-color="#fdf5dc"/>
      <stop offset="100%" stop-color="#d4cbb0"/>
    </radialGradient>
    <radialGradient id="kyubi-head" cx="36%" cy="30%" r="68%">
      <stop offset="0%" stop-color="#fefcf5"/>
      <stop offset="100%" stop-color="#d4d0c4"/>
    </radialGradient>
    <filter id="kyubi-glow" x="-50%" y="-50%" width="200%" height="200%">
      <feGaussianBlur stdDeviation="4" result="blur"/>
      <feMerge><feMergeNode in="blur"/><feMergeNode in="SourceGraphic"/></feMerge>
    </filter>
    <filter id="kyubi-tail-g" x="-20%" y="-10%" width="140%" height="120%">
      <feGaussianBlur stdDeviation="3" result="blur"/>
      <feMerge><feMergeNode in="blur"/><feMergeNode in="SourceGraphic"/></feMerge>
    </filter>
    <filter id="kyubi-eye-g" x="-60%" y="-60%" width="220%" height="220%">
      <feGaussianBlur stdDeviation="2.5" result="blur"/>
      <feMerge><feMergeNode in="blur"/><feMergeNode in="SourceGraphic"/></feMerge>
    </filter>
  </defs>

  <!-- Background aura -->
  <ellipse class="char-aura" cx="160" cy="195" rx="138" ry="155" fill="url(#kyubi-aura)"/>

  <!-- NINE TAILS -->
  <g class="char-float" filter="url(#kyubi-tail-g)">

    <!-- Tail 0 - far left -->
    <path d="M128,320 Q52,225 30,132 Q84,214 156,320Z"
      fill="url(#kyubi-tail-warm)" stroke="#080810" stroke-width="3.5" stroke-linejoin="round"/>
    <!-- Tail 1 -->
    <path d="M134,319 Q85,202 62,90 Q112,190 158,320Z"
      fill="url(#kyubi-tail-warm)" stroke="#080810" stroke-width="3.5" stroke-linejoin="round"/>
    <!-- Tail 2 -->
    <path d="M139,319 Q115,180 100,65 Q138,172 161,320Z"
      fill="url(#kyubi-tail-warm)" stroke="#080810" stroke-width="3.5" stroke-linejoin="round"/>
    <!-- Tail 3 -->
    <path d="M143,320 Q138,172 130,52 Q153,166 163,321Z"
      fill="url(#kyubi-tail-warm)" stroke="#080810" stroke-width="3.5" stroke-linejoin="round"/>
    <!-- Tail 4 - center, longest -->
    <path d="M148,320 Q152,175 160,46 Q168,175 172,320Z"
      fill="url(#kyubi-tail-warm)" stroke="#080810" stroke-width="4" stroke-linejoin="round"/>
    <!-- Tail 5 -->
    <path d="M157,321 Q168,166 190,52 Q182,172 177,320Z"
      fill="url(#kyubi-tail-warm)" stroke="#080810" stroke-width="3.5" stroke-linejoin="round"/>
    <!-- Tail 6 -->
    <path d="M159,320 Q202,172 220,65 Q245,178 181,319Z"
      fill="url(#kyubi-tail-warm)" stroke="#080810" stroke-width="3.5" stroke-linejoin="round"/>
    <!-- Tail 7 -->
    <path d="M162,319 Q208,188 258,90 Q234,198 186,319Z"
      fill="url(#kyubi-tail-warm)" stroke="#080810" stroke-width="3.5" stroke-linejoin="round"/>
    <!-- Tail 8 - far right -->
    <path d="M165,320 Q236,214 290,132 Q268,222 192,318Z"
      fill="url(#kyubi-tail-warm)" stroke="#080810" stroke-width="3.5" stroke-linejoin="round"/>

    <!-- Body / chest -->
    <ellipse cx="160" cy="328" rx="40" ry="22"
      fill="url(#kyubi-fur)" stroke="#080810" stroke-width="3.5"/>
    <!-- Belly patch -->
    <ellipse cx="160" cy="330" rx="22" ry="13" fill="#fefcf5" stroke="#080810" stroke-width="2" opacity=".75"/>

    <!-- Paws -->
    <ellipse cx="139" cy="347" rx="15" ry="9" fill="url(#kyubi-fur)" stroke="#080810" stroke-width="3"/>
    <path d="M129,349 L128,356" stroke="#080810" stroke-width="2" stroke-linecap="round"/>
    <path d="M135,351 L134,358" stroke="#080810" stroke-width="2" stroke-linecap="round"/>
    <path d="M141,352 L141,359" stroke="#080810" stroke-width="2" stroke-linecap="round"/>
    <path d="M147,351 L148,358" stroke="#080810" stroke-width="2" stroke-linecap="round"/>

    <ellipse cx="181" cy="347" rx="15" ry="9" fill="url(#kyubi-fur)" stroke="#080810" stroke-width="3"/>
    <path d="M191,349 L192,356" stroke="#080810" stroke-width="2" stroke-linecap="round"/>
    <path d="M185,351 L186,358" stroke="#080810" stroke-width="2" stroke-linecap="round"/>
    <path d="M179,352 L179,359" stroke="#080810" stroke-width="2" stroke-linecap="round"/>
    <path d="M173,351 L172,358" stroke="#080810" stroke-width="2" stroke-linecap="round"/>

    <!-- Pointed fox ears -->
    <path d="M130,268 L116,228 L150,260Z"
      fill="url(#kyubi-fur)" stroke="#080810" stroke-width="3" stroke-linejoin="round"/>
    <path d="M190,268 L204,228 L170,260Z"
      fill="url(#kyubi-fur)" stroke="#080810" stroke-width="3" stroke-linejoin="round"/>
    <!-- Ear inner blue -->
    <path d="M133,266 L121,234 L148,261Z" fill="#0047ff" opacity=".45"/>
    <path d="M187,266 L199,234 L172,261Z" fill="#0047ff" opacity=".45"/>

    <!-- HEAD -->
    <ellipse cx="160" cy="285" rx="34" ry="28"
      fill="url(#kyubi-head)" stroke="#080810" stroke-width="3.5"/>

    <!-- Muzzle -->
    <ellipse cx="160" cy="295" rx="17" ry="12" fill="#e8e4da" stroke="#080810" stroke-width="2.5"/>
    <!-- Nose -->
    <ellipse cx="160" cy="291" rx="5" ry="3.5" fill="#080810"/>
    <!-- Mouth -->
    <path d="M154,297 Q160,302 166,297" stroke="#080810" stroke-width="2" fill="none" stroke-linecap="round"/>

    <!-- Eyes -->
    <g class="eye-l" filter="url(#kyubi-eye-g)">
      <ellipse cx="146" cy="278" rx="11" ry="9" fill="white" stroke="#080810" stroke-width="2.5"/>
      <ellipse cx="146" cy="278" rx="7"  ry="6" fill="#0047ff"/>
      <ellipse cx="146" cy="279" rx="3.5" ry="4" fill="#080810"/>
      <circle  cx="149" cy="275" r="2.5" fill="white" opacity=".9"/>
    </g>
    <g class="eye-r" filter="url(#kyubi-eye-g)">
      <ellipse cx="174" cy="278" rx="11" ry="9" fill="white" stroke="#080810" stroke-width="2.5"/>
      <ellipse cx="174" cy="278" rx="7"  ry="6" fill="#0047ff"/>
      <ellipse cx="174" cy="279" rx="3.5" ry="4" fill="#080810"/>
      <circle  cx="177" cy="275" r="2.5" fill="white" opacity=".9"/>
    </g>

    <!-- Eyebrow marks -->
    <path d="M134,268 L146,273" stroke="#080810" stroke-width="3" stroke-linecap="round"/>
    <path d="M186,268 L174,273" stroke="#080810" stroke-width="3" stroke-linecap="round"/>

    <!-- Cheek whisker marks -->
    <path d="M128,282 L140,280" stroke="#080810" stroke-width="2"   stroke-linecap="round" opacity=".6"/>
    <path d="M127,287 L139,286" stroke="#080810" stroke-width="1.5" stroke-linecap="round" opacity=".4"/>
    <path d="M192,282 L180,280" stroke="#080810" stroke-width="2"   stroke-linecap="round" opacity=".6"/>
    <path d="M193,287 L181,286" stroke="#080810" stroke-width="1.5" stroke-linecap="round" opacity=".4"/>

    <!-- Forehead rune -->
    <g class="rune" filter="url(#kyubi-glow)">
      <path d="M164,258 L156,268 L163,268 L155,280" stroke="#0047ff" stroke-width="3" stroke-linecap="round" stroke-linejoin="round" fill="none"/>
      <path d="M164,258 L156,268 L163,268 L155,280" stroke="#00e5ff" stroke-width="1.2" stroke-linecap="round" stroke-linejoin="round" fill="none" opacity=".8"/>
    </g>

  </g><!-- /char-float -->

  <!-- Orbiting sparks -->
  <g class="spark-ring">
    <circle cx="160" cy="60"  r="3"   fill="#00e5ff" opacity=".9"/>
    <circle cx="268" cy="168" r="2.5" fill="#0047ff" opacity=".8"/>
    <circle cx="228" cy="326" r="2.5" fill="#00e5ff" opacity=".7"/>
    <circle cx="92"  cy="326" r="2"   fill="#0047ff" opacity=".8"/>
    <circle cx="52"  cy="168" r="3"   fill="#00e5ff" opacity=".9"/>
  </g>
  <g class="spark-ring-r" opacity=".5">
    <circle cx="160" cy="38"  r="2"   fill="#00e5ff"/>
    <circle cx="278" cy="185" r="2"   fill="#0047ff"/>
    <circle cx="214" cy="350" r="2"   fill="#00e5ff"/>
    <circle cx="106" cy="350" r="1.5" fill="#0047ff"/>
    <circle cx="42"  cy="185" r="2"   fill="#00e5ff"/>
  </g>

  <!-- Ground shadow -->
  <ellipse cx="160" cy="368" rx="55" ry="8" fill="rgba(0,0,0,.1)"/>

</svg>